<svg xmlns="http://www.w3.org/2000/svg" xmlns:xlink="http://www.w3.org/1999/xlink" width="195" zoomAndPan="magnify" viewBox="0 0 146.25 30.000001" height="40" preserveAspectRatio="xMidYMid meet" version="1.0"><defs><g/><clipPath id="id1"><path d="M 1.996094 0 L 18 0 L 18 16 L 1.996094 16 Z M 1.996094 0 " clip-rule="nonzero"/></clipPath><clipPath id="id2"><path d="M 8.839844 22.230469 L 15.546875 22.230469 L 15.546875 29.007812 L 8.839844 29.007812 Z M 8.839844 22.230469 " clip-rule="nonzero"/></clipPath><clipPath id="id3"><path d="M 13 12 L 25.949219 12 L 25.949219 25 L 13 25 Z M 13 12 " clip-rule="nonzero"/></clipPath></defs><path fill="#8fd23c" d="M 14.496094 6.949219 C 14.710938 8.269531 14.375 9.550781 13.660156 10.558594 C 12.941406 11.5625 11.84375 12.292969 10.53125 12.511719 C 9.21875 12.726562 7.945312 12.390625 6.941406 11.671875 C 5.941406 10.949219 5.214844 9.84375 5 8.527344 L 4.996094 8.527344 L 5 8.527344 C 4.78125 7.210938 5.117188 5.929688 5.835938 4.921875 C 6.550781 3.917969 7.648438 3.1875 8.960938 2.96875 C 10.273438 2.753906 11.550781 3.089844 12.550781 3.808594 C 13.550781 4.53125 14.277344 5.632812 14.496094 6.949219 Z M 13.628906 7.09375 C 13.453125 6.019531 12.859375 5.117188 12.039062 4.527344 C 11.21875 3.9375 10.175781 3.664062 9.105469 3.839844 L 9.105469 3.84375 L 9.105469 3.839844 C 8.035156 4.019531 7.136719 4.613281 6.546875 5.4375 C 5.960938 6.261719 5.6875 7.308594 5.863281 8.382812 L 5.863281 8.386719 C 6.042969 9.460938 6.636719 10.363281 7.457031 10.953125 C 8.277344 11.542969 9.320312 11.816406 10.390625 11.640625 C 11.457031 11.464844 12.355469 10.863281 12.945312 10.042969 C 13.53125 9.21875 13.804688 8.171875 13.628906 7.09375 " fill-opacity="1" fill-rule="nonzero"/><g clip-path="url(#id1)"><path fill="#8fd23c" d="M 8.359375 15.636719 C 7.125 15.421875 5.972656 14.914062 4.992188 14.175781 C 4.515625 13.820312 4.082031 13.414062 3.695312 12.957031 L 5.171875 11.75 C 5.457031 12.082031 5.777344 12.386719 6.128906 12.644531 C 6.902344 13.222656 7.808594 13.617188 8.777344 13.773438 Z M 3.582031 12.820312 L 5.054688 11.613281 C 4.988281 11.53125 4.925781 11.449219 4.863281 11.363281 L 3.390625 12.570312 C 3.453125 12.65625 3.519531 12.738281 3.582031 12.820312 Z M 3.183594 12.28125 L 4.660156 11.070312 C 4.316406 10.53125 4.054688 9.933594 3.894531 9.289062 L 2.011719 9.5625 C 2.234375 10.558594 2.640625 11.476562 3.183594 12.28125 Z M 1.996094 6.117188 C 2.238281 5 2.71875 3.957031 3.382812 3.0625 C 4.519531 1.535156 6.199219 0.414062 8.191406 0.0234375 L 8.5 1.902344 C 7.019531 2.210938 5.761719 3.054688 4.910156 4.203125 C 4.371094 4.921875 3.996094 5.761719 3.824219 6.660156 Z M 15.390625 2.277344 C 16.511719 3.433594 17.292969 4.945312 17.542969 6.667969 L 17.546875 6.667969 L 17.546875 6.671875 L 17.542969 6.671875 C 17.738281 8.023438 17.582031 9.34375 17.144531 10.539062 L 15.359375 9.894531 C 15.695312 8.980469 15.816406 7.972656 15.667969 6.945312 L 15.660156 6.945312 L 15.660156 6.941406 L 15.667969 6.941406 C 15.488281 5.699219 14.9375 4.597656 14.144531 3.734375 C 14.570312 3.238281 14.996094 2.746094 15.390625 2.277344 Z M 17.019531 10.875 L 15.226562 10.226562 C 15.042969 10.648438 14.808594 11.050781 14.53125 11.421875 C 13.757812 12.464844 12.652344 13.257812 11.34375 13.625 L 11.804688 15.472656 C 13.554688 14.996094 15.03125 13.945312 16.054688 12.5625 C 16.441406 12.042969 16.765625 11.476562 17.019531 10.875 " fill-opacity="1" fill-rule="nonzero"/></g><g clip-path="url(#id2)"><path fill="#e71193" d="M 8.976562 24.492188 C 9.160156 24.007812 9.445312 23.578125 9.808594 23.230469 C 10.4375 22.632812 11.296875 22.269531 12.234375 22.296875 L 12.234375 22.292969 L 12.234375 22.296875 C 13.167969 22.320312 14.003906 22.722656 14.605469 23.355469 C 15.203125 23.980469 15.558594 24.84375 15.535156 25.785156 C 15.519531 26.414062 15.335938 27 15.027344 27.496094 C 14.859375 27.398438 14.679688 27.292969 14.492188 27.179688 C 14.75 26.769531 14.90625 26.289062 14.917969 25.769531 C 14.9375 25 14.644531 24.300781 14.15625 23.78125 C 13.664062 23.265625 12.980469 22.933594 12.214844 22.917969 C 11.449219 22.894531 10.75 23.191406 10.238281 23.683594 C 9.9375 23.96875 9.703125 24.324219 9.554688 24.71875 Z M 11.347656 29.007812 C 11.378906 28.832031 11.417969 28.621094 11.460938 28.398438 C 10.949219 28.265625 10.492188 27.992188 10.140625 27.617188 C 9.828125 27.289062 9.59375 26.878906 9.472656 26.429688 C 9.257812 26.492188 9.050781 26.554688 8.878906 26.605469 C 9.027344 27.152344 9.3125 27.648438 9.691406 28.046875 C 10.128906 28.511719 10.703125 28.855469 11.347656 29.007812 " fill-opacity="1" fill-rule="nonzero"/></g><path fill="#e71193" d="M 12.492188 23.132812 C 13.089844 23.214844 13.621094 23.5 14.015625 23.917969 C 14.46875 24.394531 14.742188 25.046875 14.722656 25.765625 C 14.707031 26.382812 14.480469 26.9375 14.117188 27.371094 L 13.664062 26.945312 C 13.929688 26.617188 14.09375 26.203125 14.105469 25.75 C 14.121094 25.207031 13.914062 24.710938 13.566406 24.34375 C 13.273438 24.035156 12.878906 23.820312 12.4375 23.753906 C 12.453125 23.550781 12.472656 23.34375 12.492188 23.132812 Z M 14.050781 27.445312 L 13.601562 27.015625 C 13.570312 27.054688 13.535156 27.089844 13.496094 27.125 C 13.492188 27.128906 13.488281 27.132812 13.484375 27.136719 L 13.933594 27.566406 C 13.972656 27.527344 14.015625 27.488281 14.050781 27.445312 Z M 13.789062 27.695312 L 13.335938 27.261719 C 12.992188 27.527344 12.5625 27.679688 12.097656 27.667969 C 11.558594 27.65625 11.074219 27.421875 10.730469 27.054688 C 10.574219 26.894531 10.449219 26.707031 10.355469 26.5 C 10.164062 26.566406 9.964844 26.640625 9.773438 26.710938 C 9.894531 27 10.066406 27.261719 10.28125 27.484375 C 10.734375 27.96875 11.371094 28.269531 12.085938 28.289062 C 12.730469 28.304688 13.328125 28.082031 13.789062 27.695312 " fill-opacity="1" fill-rule="nonzero"/><path fill="#e71193" d="M 10.097656 25.648438 C 10.113281 25.078125 10.355469 24.570312 10.734375 24.207031 C 11.113281 23.84375 11.632812 23.628906 12.199219 23.640625 C 12.765625 23.660156 13.269531 23.902344 13.632812 24.28125 C 13.992188 24.664062 14.207031 25.183594 14.195312 25.75 C 14.179688 26.320312 13.9375 26.828125 13.558594 27.191406 C 13.179688 27.554688 12.660156 27.773438 12.097656 27.757812 C 11.53125 27.742188 11.023438 27.5 10.660156 27.117188 C 10.300781 26.738281 10.085938 26.21875 10.097656 25.648438 Z M 10.246094 25.652344 C 10.234375 26.179688 10.433594 26.664062 10.769531 27.015625 C 11.105469 27.371094 11.574219 27.597656 12.097656 27.609375 C 12.625 27.625 13.105469 27.421875 13.457031 27.085938 C 13.8125 26.746094 14.035156 26.277344 14.046875 25.75 C 14.0625 25.21875 13.859375 24.738281 13.523438 24.382812 C 13.191406 24.03125 12.71875 23.804688 12.195312 23.789062 C 11.671875 23.777344 11.191406 23.980469 10.835938 24.316406 C 10.484375 24.652344 10.261719 25.125 10.246094 25.652344 " fill-opacity="1" fill-rule="nonzero"/><path fill="#e71193" d="M 11.644531 25.6875 C 11.640625 25.824219 11.695312 25.953125 11.78125 26.050781 C 11.871094 26.140625 11.996094 26.203125 12.132812 26.207031 C 12.273438 26.207031 12.402344 26.15625 12.492188 26.066406 C 12.585938 25.976562 12.648438 25.851562 12.652344 25.710938 C 12.652344 25.574219 12.601562 25.445312 12.511719 25.351562 C 12.421875 25.257812 12.296875 25.195312 12.160156 25.195312 C 12.019531 25.191406 11.894531 25.246094 11.800781 25.335938 C 11.707031 25.421875 11.648438 25.546875 11.644531 25.6875 " fill-opacity="1" fill-rule="nonzero"/><path fill="#e71193" d="M 11.605469 25.6875 C 11.609375 25.539062 11.675781 25.402344 11.773438 25.308594 C 11.875 25.210938 12.011719 25.152344 12.160156 25.15625 C 12.3125 25.160156 12.445312 25.226562 12.539062 25.324219 C 12.632812 25.425781 12.691406 25.566406 12.6875 25.714844 C 12.6875 25.863281 12.621094 26 12.519531 26.09375 C 12.421875 26.191406 12.285156 26.246094 12.132812 26.242188 C 11.984375 26.242188 11.851562 26.175781 11.753906 26.074219 C 11.660156 25.972656 11.601562 25.835938 11.605469 25.6875 " fill-opacity="1" fill-rule="nonzero"/><g clip-path="url(#id3)"><path fill="#4db0e6" d="M 19.765625 12.511719 C 18.054688 12.511719 16.503906 13.210938 15.382812 14.335938 C 14.265625 15.460938 13.570312 17.019531 13.570312 18.738281 C 13.570312 20.460938 14.265625 22.019531 15.382812 23.144531 C 16.503906 24.269531 18.054688 24.964844 19.765625 24.964844 C 19.800781 24.964844 19.832031 24.964844 19.863281 24.964844 L 19.863281 23.828125 C 19.832031 23.832031 19.800781 23.832031 19.765625 23.832031 L 19.765625 23.828125 L 19.765625 23.832031 C 18.371094 23.832031 17.105469 23.261719 16.1875 22.335938 C 15.265625 21.414062 14.699219 20.144531 14.699219 18.738281 L 14.703125 18.738281 L 14.699219 18.738281 C 14.699219 17.335938 15.265625 16.0625 16.1875 15.140625 C 17.105469 14.21875 18.371094 13.648438 19.765625 13.648438 L 19.765625 13.652344 L 19.765625 13.648438 C 21.164062 13.648438 22.429688 14.21875 23.347656 15.140625 C 24.167969 15.964844 24.710938 17.070312 24.816406 18.292969 L 25.949219 18.292969 C 25.839844 16.753906 25.171875 15.363281 24.148438 14.335938 C 23.03125 13.210938 21.480469 12.511719 19.765625 12.511719 " fill-opacity="1" fill-rule="nonzero"/></g><path fill="#4db0e6" d="M 19.765625 13.605469 C 18.355469 13.605469 17.078125 14.179688 16.152344 15.109375 C 15.226562 16.039062 14.65625 17.320312 14.65625 18.738281 C 14.65625 20.160156 15.226562 21.441406 16.152344 22.371094 C 17.078125 23.300781 18.355469 23.875 19.765625 23.875 C 21.179688 23.875 22.457031 23.300781 23.382812 22.371094 C 24.304688 21.441406 24.878906 20.160156 24.878906 18.738281 C 24.878906 17.320312 24.304688 16.039062 23.382812 15.109375 C 22.457031 14.179688 21.179688 13.605469 19.765625 13.605469 Z M 19.765625 13.976562 C 21.078125 13.976562 22.261719 14.511719 23.121094 15.371094 C 23.976562 16.234375 24.507812 17.425781 24.507812 18.738281 C 24.507812 20.054688 23.976562 21.246094 23.121094 22.105469 C 22.261719 22.96875 21.074219 23.503906 19.765625 23.503906 C 18.460938 23.503906 17.273438 22.96875 16.414062 22.105469 C 15.558594 21.246094 15.027344 20.054688 15.027344 18.738281 C 15.027344 17.425781 15.558594 16.234375 16.414062 15.371094 C 17.273438 14.511719 18.460938 13.976562 19.765625 13.976562 " fill-opacity="1" fill-rule="nonzero"/><path fill="#4db0e6" d="M 19.699219 15.226562 C 18.761719 15.246094 17.914062 15.636719 17.296875 16.257812 C 16.664062 16.890625 16.273438 17.769531 16.273438 18.738281 L 16.269531 18.738281 L 16.273438 18.738281 C 16.273438 19.710938 16.664062 20.589844 17.296875 21.222656 C 17.914062 21.84375 18.761719 22.234375 19.699219 22.25 L 19.699219 21.796875 C 18.886719 21.78125 18.152344 21.441406 17.617188 20.902344 C 17.066406 20.347656 16.722656 19.582031 16.722656 18.738281 L 16.726562 18.738281 L 16.722656 18.738281 C 16.722656 17.894531 17.066406 17.132812 17.617188 16.578125 C 18.152344 16.039062 18.886719 15.699219 19.699219 15.683594 L 19.699219 15.226562 " fill-opacity="1" fill-rule="nonzero"/><path fill="#4db0e6" d="M 19.765625 15.976562 C 19.007812 15.976562 18.320312 16.285156 17.824219 16.785156 C 17.324219 17.285156 17.015625 17.976562 17.015625 18.738281 C 17.015625 19.503906 17.324219 20.195312 17.824219 20.695312 C 18.320312 21.195312 19.007812 21.503906 19.765625 21.503906 C 20.527344 21.503906 21.214844 21.195312 21.714844 20.695312 C 22.210938 20.195312 22.519531 19.503906 22.519531 18.738281 C 22.519531 17.976562 22.210938 17.285156 21.714844 16.785156 C 21.214844 16.285156 20.527344 15.976562 19.765625 15.976562 Z M 19.765625 16.203125 C 20.464844 16.203125 21.097656 16.488281 21.550781 16.945312 C 22.007812 17.40625 22.292969 18.039062 22.292969 18.738281 C 22.292969 19.441406 22.007812 20.074219 21.550781 20.53125 C 21.097656 20.992188 20.464844 21.277344 19.765625 21.277344 C 19.070312 21.277344 18.4375 20.992188 17.984375 20.53125 C 17.523438 20.074219 17.242188 19.441406 17.242188 18.738281 C 17.242188 18.039062 17.523438 17.40625 17.980469 16.945312 C 18.4375 16.488281 19.070312 16.203125 19.765625 16.203125 " fill-opacity="1" fill-rule="nonzero"/><path fill="#4db0e6" d="M 19.765625 17.285156 L 19.765625 17.289062 C 19.367188 17.289062 19.003906 17.449219 18.742188 17.710938 C 18.484375 17.972656 18.320312 18.339844 18.320312 18.738281 C 18.320312 19.140625 18.484375 19.503906 18.742188 19.765625 C 19.003906 20.03125 19.367188 20.195312 19.765625 20.195312 C 20.167969 20.195312 20.53125 20.03125 20.792969 19.765625 C 21.050781 19.503906 21.210938 19.140625 21.210938 18.738281 L 21.214844 18.738281 L 21.210938 18.738281 C 21.210938 18.339844 21.050781 17.972656 20.789062 17.710938 C 20.53125 17.449219 20.167969 17.289062 19.765625 17.289062 Z M 19.765625 17.742188 C 20.042969 17.742188 20.289062 17.851562 20.46875 18.035156 C 20.648438 18.214844 20.761719 18.464844 20.761719 18.738281 C 20.761719 19.015625 20.648438 19.265625 20.46875 19.445312 C 20.289062 19.628906 20.042969 19.738281 19.765625 19.738281 C 19.492188 19.738281 19.246094 19.628906 19.066406 19.445312 C 18.882812 19.265625 18.773438 19.015625 18.773438 18.738281 C 18.773438 18.464844 18.882812 18.214844 19.066406 18.035156 C 19.246094 17.851562 19.492188 17.742188 19.765625 17.742188 " fill-opacity="1" fill-rule="nonzero"/><g fill="#000000" fill-opacity="1"><g transform="translate(72.762094, 14.879034)"><g/></g></g><g fill="#ff5757" fill-opacity="1"><g transform="translate(33.981267, 20.685486)"><g><path d="M 1.5 -12.0625 L 3.1875 -12.0625 L 3.1875 0 L 1.5 0 Z M 1.5 -12.0625 "/></g></g></g><g fill="#ff5757" fill-opacity="1"><g transform="translate(38.664034, 20.685486)"><g><path d="M 6.6875 0.265625 C 5.832031 0.265625 5.054688 0.125 4.359375 -0.15625 C 3.671875 -0.4375 3.078125 -0.84375 2.578125 -1.375 C 2.078125 -1.90625 1.691406 -2.5625 1.421875 -3.34375 C 1.148438 -4.132812 1.015625 -5.035156 1.015625 -6.046875 C 1.015625 -7.046875 1.164062 -7.9375 1.46875 -8.71875 C 1.78125 -9.507812 2.195312 -10.171875 2.71875 -10.703125 C 3.238281 -11.234375 3.847656 -11.640625 4.546875 -11.921875 C 5.242188 -12.203125 5.984375 -12.34375 6.765625 -12.34375 C 7.265625 -12.34375 7.710938 -12.304688 8.109375 -12.234375 C 8.515625 -12.160156 8.863281 -12.078125 9.15625 -11.984375 C 9.457031 -11.898438 9.703125 -11.8125 9.890625 -11.71875 C 10.078125 -11.625 10.203125 -11.550781 10.265625 -11.5 L 9.78125 -10.109375 C 9.675781 -10.179688 9.523438 -10.257812 9.328125 -10.34375 C 9.128906 -10.425781 8.90625 -10.503906 8.65625 -10.578125 C 8.40625 -10.660156 8.128906 -10.726562 7.828125 -10.78125 C 7.535156 -10.832031 7.238281 -10.859375 6.9375 -10.859375 C 6.300781 -10.859375 5.726562 -10.75 5.21875 -10.53125 C 4.707031 -10.3125 4.269531 -9.992188 3.90625 -9.578125 C 3.550781 -9.160156 3.273438 -8.648438 3.078125 -8.046875 C 2.890625 -7.453125 2.796875 -6.785156 2.796875 -6.046875 C 2.796875 -5.316406 2.878906 -4.65625 3.046875 -4.0625 C 3.222656 -3.476562 3.476562 -2.972656 3.8125 -2.546875 C 4.144531 -2.128906 4.5625 -1.800781 5.0625 -1.5625 C 5.570312 -1.332031 6.164062 -1.21875 6.84375 -1.21875 C 7.613281 -1.21875 8.253906 -1.296875 8.765625 -1.453125 C 9.273438 -1.617188 9.660156 -1.765625 9.921875 -1.890625 L 10.359375 -0.5 C 10.273438 -0.445312 10.128906 -0.375 9.921875 -0.28125 C 9.710938 -0.195312 9.453125 -0.113281 9.140625 -0.03125 C 8.828125 0.0507812 8.460938 0.117188 8.046875 0.171875 C 7.628906 0.234375 7.175781 0.265625 6.6875 0.265625 Z M 6.6875 0.265625 "/></g></g></g><g fill="#ff5757" fill-opacity="1"><g transform="translate(49.457027, 20.685486)"><g><path d="M 9.5625 -12.0625 L 9.5625 -10.59375 L 5.765625 -10.59375 L 5.765625 0 L 4.078125 0 L 4.078125 -10.59375 L 0.28125 -10.59375 L 0.28125 -12.0625 Z M 9.5625 -12.0625 "/></g></g></g><g fill="#ff5757" fill-opacity="1"><g transform="translate(59.292581, 20.685486)"><g/></g></g><g fill="#ff5757" fill-opacity="1"><g transform="translate(63.313843, 20.685486)"><g><path d="M 4.296875 -1.203125 C 6.054688 -1.203125 6.9375 -1.804688 6.9375 -3.015625 C 6.9375 -3.378906 6.859375 -3.691406 6.703125 -3.953125 C 6.546875 -4.210938 6.332031 -4.4375 6.0625 -4.625 C 5.800781 -4.820312 5.5 -4.988281 5.15625 -5.125 C 4.8125 -5.269531 4.453125 -5.410156 4.078125 -5.546875 C 3.628906 -5.703125 3.207031 -5.875 2.8125 -6.0625 C 2.425781 -6.257812 2.085938 -6.488281 1.796875 -6.75 C 1.503906 -7.007812 1.273438 -7.316406 1.109375 -7.671875 C 0.941406 -8.035156 0.859375 -8.472656 0.859375 -8.984375 C 0.859375 -10.035156 1.21875 -10.859375 1.9375 -11.453125 C 2.65625 -12.046875 3.644531 -12.34375 4.90625 -12.34375 C 5.632812 -12.34375 6.296875 -12.265625 6.890625 -12.109375 C 7.492188 -11.953125 7.9375 -11.78125 8.21875 -11.59375 L 7.671875 -10.21875 C 7.429688 -10.363281 7.066406 -10.507812 6.578125 -10.65625 C 6.097656 -10.800781 5.539062 -10.875 4.90625 -10.875 C 4.582031 -10.875 4.28125 -10.835938 4 -10.765625 C 3.71875 -10.703125 3.472656 -10.597656 3.265625 -10.453125 C 3.054688 -10.316406 2.890625 -10.140625 2.765625 -9.921875 C 2.648438 -9.710938 2.59375 -9.460938 2.59375 -9.171875 C 2.59375 -8.847656 2.65625 -8.578125 2.78125 -8.359375 C 2.90625 -8.140625 3.082031 -7.941406 3.3125 -7.765625 C 3.550781 -7.597656 3.820312 -7.445312 4.125 -7.3125 C 4.4375 -7.175781 4.78125 -7.035156 5.15625 -6.890625 C 5.675781 -6.679688 6.148438 -6.472656 6.578125 -6.265625 C 7.015625 -6.054688 7.394531 -5.804688 7.71875 -5.515625 C 8.039062 -5.222656 8.285156 -4.875 8.453125 -4.46875 C 8.628906 -4.070312 8.71875 -3.59375 8.71875 -3.03125 C 8.71875 -1.96875 8.332031 -1.148438 7.5625 -0.578125 C 6.789062 -0.015625 5.703125 0.265625 4.296875 0.265625 C 3.816406 0.265625 3.378906 0.226562 2.984375 0.15625 C 2.585938 0.09375 2.226562 0.0195312 1.90625 -0.0625 C 1.59375 -0.144531 1.320312 -0.234375 1.09375 -0.328125 C 0.875 -0.429688 0.703125 -0.519531 0.578125 -0.59375 L 1.078125 -1.984375 C 1.347656 -1.835938 1.753906 -1.671875 2.296875 -1.484375 C 2.835938 -1.296875 3.503906 -1.203125 4.296875 -1.203125 Z M 4.296875 -1.203125 "/></g></g></g><g fill="#ff5757" fill-opacity="1"><g transform="translate(72.57493, 20.685486)"><g><path d="M 9.375 -4.53125 C 9.375 -3.8125 9.269531 -3.160156 9.0625 -2.578125 C 8.851562 -1.992188 8.5625 -1.492188 8.1875 -1.078125 C 7.8125 -0.660156 7.363281 -0.335938 6.84375 -0.109375 C 6.320312 0.109375 5.753906 0.21875 5.140625 0.21875 C 4.523438 0.21875 3.953125 0.109375 3.421875 -0.109375 C 2.898438 -0.335938 2.453125 -0.660156 2.078125 -1.078125 C 1.703125 -1.492188 1.410156 -1.992188 1.203125 -2.578125 C 0.992188 -3.160156 0.890625 -3.8125 0.890625 -4.53125 C 0.890625 -5.238281 0.992188 -5.882812 1.203125 -6.46875 C 1.410156 -7.050781 1.703125 -7.550781 2.078125 -7.96875 C 2.453125 -8.382812 2.898438 -8.707031 3.421875 -8.9375 C 3.953125 -9.164062 4.523438 -9.28125 5.140625 -9.28125 C 5.753906 -9.28125 6.320312 -9.164062 6.84375 -8.9375 C 7.363281 -8.707031 7.8125 -8.382812 8.1875 -7.96875 C 8.5625 -7.550781 8.851562 -7.050781 9.0625 -6.46875 C 9.269531 -5.882812 9.375 -5.238281 9.375 -4.53125 Z M 7.6875 -4.53125 C 7.6875 -5.550781 7.457031 -6.359375 7 -6.953125 C 6.539062 -7.546875 5.921875 -7.84375 5.140625 -7.84375 C 4.347656 -7.84375 3.722656 -7.546875 3.265625 -6.953125 C 2.804688 -6.359375 2.578125 -5.550781 2.578125 -4.53125 C 2.578125 -3.507812 2.804688 -2.695312 3.265625 -2.09375 C 3.722656 -1.5 4.347656 -1.203125 5.140625 -1.203125 C 5.921875 -1.203125 6.539062 -1.5 7 -2.09375 C 7.457031 -2.695312 7.6875 -3.507812 7.6875 -4.53125 Z M 7.6875 -4.53125 "/></g></g></g><g fill="#ff5757" fill-opacity="1"><g transform="translate(82.845685, 20.685486)"><g><path d="M 5.328125 0.203125 C 4.597656 0.203125 3.957031 0.0859375 3.40625 -0.140625 C 2.851562 -0.367188 2.382812 -0.691406 2 -1.109375 C 1.625 -1.523438 1.34375 -2.019531 1.15625 -2.59375 C 0.976562 -3.175781 0.890625 -3.816406 0.890625 -4.515625 C 0.890625 -5.203125 0.988281 -5.835938 1.1875 -6.421875 C 1.394531 -7.003906 1.679688 -7.503906 2.046875 -7.921875 C 2.421875 -8.347656 2.878906 -8.679688 3.421875 -8.921875 C 3.960938 -9.160156 4.5625 -9.28125 5.21875 -9.28125 C 5.625 -9.28125 6.03125 -9.242188 6.4375 -9.171875 C 6.84375 -9.097656 7.234375 -8.988281 7.609375 -8.84375 L 7.234375 -7.46875 C 6.992188 -7.582031 6.710938 -7.671875 6.390625 -7.734375 C 6.078125 -7.804688 5.738281 -7.84375 5.375 -7.84375 C 4.46875 -7.84375 3.773438 -7.554688 3.296875 -6.984375 C 2.816406 -6.421875 2.578125 -5.597656 2.578125 -4.515625 C 2.578125 -4.023438 2.628906 -3.578125 2.734375 -3.171875 C 2.847656 -2.765625 3.023438 -2.414062 3.265625 -2.125 C 3.503906 -1.832031 3.804688 -1.609375 4.171875 -1.453125 C 4.546875 -1.296875 5 -1.21875 5.53125 -1.21875 C 5.957031 -1.21875 6.34375 -1.257812 6.6875 -1.34375 C 7.039062 -1.425781 7.316406 -1.507812 7.515625 -1.59375 L 7.75 -0.25 C 7.65625 -0.1875 7.519531 -0.128906 7.34375 -0.078125 C 7.164062 -0.0234375 6.96875 0.0195312 6.75 0.0625 C 6.53125 0.101562 6.296875 0.132812 6.046875 0.15625 C 5.796875 0.1875 5.554688 0.203125 5.328125 0.203125 Z M 5.328125 0.203125 "/></g></g></g><g fill="#ff5757" fill-opacity="1"><g transform="translate(90.940427, 20.685486)"><g><path d="M 2.90625 -9.046875 L 6.328125 -9.046875 L 6.328125 -7.6875 L 2.90625 -7.6875 L 2.90625 -3.515625 C 2.90625 -3.066406 2.9375 -2.691406 3 -2.390625 C 3.070312 -2.097656 3.175781 -1.863281 3.3125 -1.6875 C 3.457031 -1.519531 3.632812 -1.398438 3.84375 -1.328125 C 4.050781 -1.265625 4.296875 -1.234375 4.578125 -1.234375 C 5.066406 -1.234375 5.457031 -1.285156 5.75 -1.390625 C 6.050781 -1.503906 6.257812 -1.585938 6.375 -1.640625 L 6.6875 -0.296875 C 6.519531 -0.210938 6.234375 -0.113281 5.828125 0 C 5.421875 0.125 4.957031 0.1875 4.4375 0.1875 C 3.820312 0.1875 3.3125 0.109375 2.90625 -0.046875 C 2.507812 -0.203125 2.1875 -0.4375 1.9375 -0.75 C 1.695312 -1.0625 1.523438 -1.445312 1.421875 -1.90625 C 1.328125 -2.363281 1.28125 -2.894531 1.28125 -3.5 L 1.28125 -11.578125 L 2.90625 -11.859375 Z M 2.90625 -9.046875 "/></g></g></g><g fill="#ff5757" fill-opacity="1"><g transform="translate(97.938463, 20.685486)"><g><path d="M 4.734375 -9.25 C 4.867188 -9.25 5.023438 -9.238281 5.203125 -9.21875 C 5.390625 -9.195312 5.566406 -9.171875 5.734375 -9.140625 C 5.910156 -9.117188 6.070312 -9.09375 6.21875 -9.0625 C 6.363281 -9.03125 6.472656 -9.003906 6.546875 -8.984375 L 6.265625 -7.578125 C 6.140625 -7.617188 5.925781 -7.671875 5.625 -7.734375 C 5.332031 -7.796875 4.953125 -7.828125 4.484375 -7.828125 C 4.179688 -7.828125 3.882812 -7.796875 3.59375 -7.734375 C 3.300781 -7.671875 3.109375 -7.628906 3.015625 -7.609375 L 3.015625 0 L 1.390625 0 L 1.390625 -8.671875 C 1.773438 -8.804688 2.25 -8.9375 2.8125 -9.0625 C 3.382812 -9.1875 4.023438 -9.25 4.734375 -9.25 Z M 4.734375 -9.25 "/></g></g></g><g fill="#ff5757" fill-opacity="1"><g transform="translate(104.657976, 20.685486)"><g><path d="M 4.453125 -1.171875 C 4.835938 -1.171875 5.175781 -1.175781 5.46875 -1.1875 C 5.769531 -1.207031 6.019531 -1.238281 6.21875 -1.28125 L 6.21875 -3.984375 C 6.101562 -4.046875 5.910156 -4.09375 5.640625 -4.125 C 5.378906 -4.164062 5.066406 -4.1875 4.703125 -4.1875 C 4.453125 -4.1875 4.191406 -4.171875 3.921875 -4.140625 C 3.648438 -4.109375 3.398438 -4.035156 3.171875 -3.921875 C 2.953125 -3.816406 2.765625 -3.664062 2.609375 -3.46875 C 2.460938 -3.28125 2.390625 -3.03125 2.390625 -2.71875 C 2.390625 -2.132812 2.570312 -1.726562 2.9375 -1.5 C 3.3125 -1.28125 3.816406 -1.171875 4.453125 -1.171875 Z M 4.3125 -9.28125 C 4.96875 -9.28125 5.515625 -9.191406 5.953125 -9.015625 C 6.398438 -8.847656 6.757812 -8.609375 7.03125 -8.296875 C 7.3125 -7.992188 7.507812 -7.628906 7.625 -7.203125 C 7.738281 -6.785156 7.796875 -6.320312 7.796875 -5.8125 L 7.796875 -0.15625 C 7.660156 -0.132812 7.46875 -0.101562 7.21875 -0.0625 C 6.96875 -0.0195312 6.6875 0.015625 6.375 0.046875 C 6.0625 0.0859375 5.71875 0.117188 5.34375 0.140625 C 4.976562 0.171875 4.617188 0.1875 4.265625 0.1875 C 3.753906 0.1875 3.28125 0.132812 2.84375 0.03125 C 2.414062 -0.0703125 2.046875 -0.234375 1.734375 -0.453125 C 1.421875 -0.679688 1.175781 -0.984375 1 -1.359375 C 0.832031 -1.734375 0.75 -2.179688 0.75 -2.703125 C 0.75 -3.203125 0.847656 -3.628906 1.046875 -3.984375 C 1.253906 -4.347656 1.53125 -4.640625 1.875 -4.859375 C 2.226562 -5.078125 2.632812 -5.238281 3.09375 -5.34375 C 3.5625 -5.445312 4.050781 -5.5 4.5625 -5.5 C 4.71875 -5.5 4.882812 -5.488281 5.0625 -5.46875 C 5.238281 -5.457031 5.40625 -5.4375 5.5625 -5.40625 C 5.71875 -5.375 5.851562 -5.347656 5.96875 -5.328125 C 6.082031 -5.304688 6.164062 -5.289062 6.21875 -5.28125 L 6.21875 -5.734375 C 6.21875 -5.992188 6.1875 -6.253906 6.125 -6.515625 C 6.070312 -6.773438 5.96875 -7.003906 5.8125 -7.203125 C 5.664062 -7.410156 5.457031 -7.578125 5.1875 -7.703125 C 4.925781 -7.828125 4.585938 -7.890625 4.171875 -7.890625 C 3.640625 -7.890625 3.171875 -7.847656 2.765625 -7.765625 C 2.367188 -7.691406 2.070312 -7.613281 1.875 -7.53125 L 1.6875 -8.875 C 1.894531 -8.96875 2.242188 -9.054688 2.734375 -9.140625 C 3.222656 -9.234375 3.75 -9.28125 4.3125 -9.28125 Z M 4.3125 -9.28125 "/></g></g></g><g fill="#ff5757" fill-opacity="1"><g transform="translate(113.744976, 20.685486)"><g><path d="M 1.390625 -8.796875 C 1.765625 -8.878906 2.257812 -8.972656 2.875 -9.078125 C 3.488281 -9.191406 4.195312 -9.25 5 -9.25 C 5.71875 -9.25 6.3125 -9.144531 6.78125 -8.9375 C 7.257812 -8.738281 7.640625 -8.453125 7.921875 -8.078125 C 8.210938 -7.710938 8.414062 -7.273438 8.53125 -6.765625 C 8.644531 -6.253906 8.703125 -5.691406 8.703125 -5.078125 L 8.703125 0 L 7.078125 0 L 7.078125 -4.734375 C 7.078125 -5.285156 7.039062 -5.757812 6.96875 -6.15625 C 6.894531 -6.550781 6.769531 -6.867188 6.59375 -7.109375 C 6.414062 -7.359375 6.179688 -7.535156 5.890625 -7.640625 C 5.609375 -7.753906 5.253906 -7.8125 4.828125 -7.8125 C 4.648438 -7.8125 4.46875 -7.804688 4.28125 -7.796875 C 4.09375 -7.785156 3.914062 -7.769531 3.75 -7.75 C 3.582031 -7.738281 3.429688 -7.71875 3.296875 -7.6875 C 3.160156 -7.664062 3.066406 -7.648438 3.015625 -7.640625 L 3.015625 0 L 1.390625 0 Z M 1.390625 -8.796875 "/></g></g></g><g fill="#ff5757" fill-opacity="1"><g transform="translate(123.737197, 20.685486)"><g><path d="M 7.0625 -0.90625 C 6.925781 -0.8125 6.65625 -0.691406 6.25 -0.546875 C 5.851562 -0.398438 5.390625 -0.328125 4.859375 -0.328125 C 4.304688 -0.328125 3.789062 -0.414062 3.3125 -0.59375 C 2.832031 -0.769531 2.410156 -1.039062 2.046875 -1.40625 C 1.691406 -1.769531 1.410156 -2.222656 1.203125 -2.765625 C 0.992188 -3.304688 0.890625 -3.957031 0.890625 -4.71875 C 0.890625 -5.375 0.988281 -5.976562 1.1875 -6.53125 C 1.382812 -7.082031 1.671875 -7.554688 2.046875 -7.953125 C 2.421875 -8.359375 2.878906 -8.675781 3.421875 -8.90625 C 3.972656 -9.132812 4.59375 -9.25 5.28125 -9.25 C 6.03125 -9.25 6.6875 -9.191406 7.25 -9.078125 C 7.8125 -8.960938 8.285156 -8.859375 8.671875 -8.765625 L 8.671875 -0.703125 C 8.671875 0.691406 8.3125 1.703125 7.59375 2.328125 C 6.875 2.953125 5.78125 3.265625 4.3125 3.265625 C 3.75 3.265625 3.210938 3.21875 2.703125 3.125 C 2.203125 3.039062 1.765625 2.929688 1.390625 2.796875 L 1.6875 1.390625 C 2.007812 1.515625 2.40625 1.625 2.875 1.71875 C 3.34375 1.820312 3.832031 1.875 4.34375 1.875 C 5.3125 1.875 6.003906 1.679688 6.421875 1.296875 C 6.847656 0.921875 7.0625 0.316406 7.0625 -0.515625 Z M 7.046875 -7.625 C 6.890625 -7.664062 6.671875 -7.707031 6.390625 -7.75 C 6.117188 -7.789062 5.753906 -7.8125 5.296875 -7.8125 C 4.421875 -7.8125 3.75 -7.523438 3.28125 -6.953125 C 2.8125 -6.390625 2.578125 -5.640625 2.578125 -4.703125 C 2.578125 -4.179688 2.640625 -3.734375 2.765625 -3.359375 C 2.898438 -2.984375 3.082031 -2.675781 3.3125 -2.4375 C 3.539062 -2.195312 3.800781 -2.015625 4.09375 -1.890625 C 4.394531 -1.773438 4.703125 -1.71875 5.015625 -1.71875 C 5.441406 -1.71875 5.832031 -1.78125 6.1875 -1.90625 C 6.550781 -2.03125 6.835938 -2.171875 7.046875 -2.328125 Z M 7.046875 -7.625 "/></g></g></g></svg>